<svg width="17" height="19" viewBox="0 0 17 19" fill="none" xmlns="http://www.w3.org/2000/svg">
<path d="M16.1327 10.2451L14.7963 5.11868C14.4046 3.61685 13.5532 2.29772 12.3776 1.37096C11.202 0.444207 9.76953 -0.036988 8.30795 0.00386744C6.84636 0.0447228 5.43953 0.605284 4.31106 1.59645C3.1826 2.58761 2.39727 3.95249 2.0799 5.47414L1.04523 10.4348C0.930939 10.983 0.933582 11.5515 1.05296 12.0984C1.17234 12.6453 1.4054 13.1566 1.73495 13.5946C2.0645 14.0326 2.48211 14.3862 2.95695 14.6291C3.4318 14.872 3.95175 14.9981 4.47842 14.998H5.26199C5.42342 15.8457 5.85475 16.6077 6.48287 17.1551C7.111 17.7024 7.8973 18.0015 8.70855 18.0015C9.5198 18.0015 10.3061 17.7024 10.9342 17.1551C11.5623 16.6077 11.9937 15.8457 12.1551 14.998H12.7445C13.2867 14.9981 13.8216 14.8645 14.3073 14.6077C14.793 14.3509 15.2165 13.9778 15.5446 13.5176C15.8727 13.0574 16.0965 12.5226 16.1987 11.9549C16.3008 11.3872 16.2778 10.8021 16.1327 10.2451ZM8.70855 16.4979C8.27368 16.496 7.84998 16.3508 7.49543 16.0824C7.14088 15.8139 6.87279 15.4352 6.72783 14.998H10.6893C10.5443 15.4352 10.2762 15.8139 9.92167 16.0824C9.56711 16.3508 9.14342 16.496 8.70855 16.4979ZM14.4242 12.6096C14.2282 12.8868 13.9743 13.1115 13.6826 13.2657C13.3909 13.42 13.0694 13.4996 12.7438 13.4982H4.47842C4.16245 13.4982 3.85053 13.4225 3.56568 13.2767C3.28082 13.1309 3.03031 12.9188 2.83263 12.656C2.63495 12.3932 2.49515 12.0864 2.42354 11.7583C2.35194 11.4302 2.35036 11.0891 2.41893 10.7603L3.4529 5.79885C3.70214 4.60365 4.31897 3.53157 5.20534 2.75304C6.0917 1.97451 7.19672 1.53422 8.34474 1.50216C9.49276 1.47009 10.6179 1.84809 11.5413 2.57607C12.4647 3.30405 13.1333 4.34023 13.4409 5.51989L14.7773 10.6463C14.8656 10.9803 14.8797 11.3316 14.8184 11.6724C14.7571 12.0132 14.6221 12.3341 14.4242 12.6096Z" fill="#595959"/>
</svg>
