<svg width="45" height="45" viewBox="0 0 45 45" fill="none" xmlns="http://www.w3.org/2000/svg">
<rect width="45" height="45" rx="15.3333" fill="#D9D9D9"/>
<mask id="mask0_752_97" style="mask-type:alpha" maskUnits="userSpaceOnUse" x="11" y="11" width="24" height="24">
<rect x="11" y="11" width="24" height="24" fill="#D9D9D9"/>
</mask>
<g mask="url(#mask0_752_97)">
<path d="M12.7979 30.3079V28.0846C12.7979 27.5693 12.9309 27.1094 13.1969 26.7049C13.4629 26.3004 13.8181 25.9857 14.2626 25.7609C15.2129 25.2961 16.1685 24.9376 17.1294 24.6856C18.0904 24.4338 19.1464 24.3079 20.2976 24.3079C21.4489 24.3079 22.505 24.4338 23.4659 24.6856C24.4269 24.9376 25.3825 25.2961 26.3329 25.7609C26.7774 25.9857 27.1326 26.3004 27.3986 26.7049C27.6646 27.1094 27.7976 27.5693 27.7976 28.0846V30.3079H12.7979ZM29.7976 30.3079V27.9616C29.7976 27.3053 29.6369 26.6797 29.3156 26.0849C28.9941 25.4902 28.5381 24.98 27.9476 24.5541C28.6181 24.6541 29.2547 24.8089 29.8574 25.0184C30.4599 25.2281 31.0349 25.4758 31.5824 25.7616C32.099 26.0373 32.498 26.3622 32.7794 26.7364C33.0607 27.1104 33.2014 27.5188 33.2014 27.9616V30.3079H29.7976ZM20.2976 22.6924C19.3351 22.6924 18.5112 22.3497 17.8259 21.6644C17.1405 20.9789 16.7979 20.1549 16.7979 19.1924C16.7979 18.2299 17.1405 17.406 17.8259 16.7206C18.5112 16.0351 19.3351 15.6924 20.2976 15.6924C21.2601 15.6924 22.0841 16.0351 22.7696 16.7206C23.4549 17.406 23.7976 18.2299 23.7976 19.1924C23.7976 20.1549 23.4549 20.9789 22.7696 21.6644C22.0841 22.3497 21.2601 22.6924 20.2976 22.6924ZM28.9321 19.1924C28.9321 20.1549 28.5894 20.9789 27.9041 21.6644C27.2188 22.3497 26.3949 22.6924 25.4324 22.6924C25.3195 22.6924 25.1759 22.6796 25.0016 22.6539C24.8271 22.6282 24.6835 22.6 24.5709 22.5694C24.9652 22.0952 25.2683 21.5692 25.4801 20.9914C25.6918 20.4136 25.7976 19.8136 25.7976 19.1914C25.7976 18.5691 25.6896 17.9713 25.4736 17.3981C25.2576 16.8251 24.9567 16.2976 24.5709 15.8156C24.7144 15.7643 24.8579 15.731 25.0016 15.7156C25.1451 15.7001 25.2887 15.6924 25.4324 15.6924C26.3949 15.6924 27.2188 16.0351 27.9041 16.7206C28.5894 17.406 28.9321 18.2299 28.9321 19.1924ZM14.2976 28.8079H26.2976V28.0846C26.2976 27.8758 26.2454 27.69 26.1409 27.5271C26.0365 27.3643 25.8709 27.222 25.6439 27.1001C24.8209 26.6758 23.9734 26.3543 23.1016 26.1356C22.2298 25.9171 21.2951 25.8079 20.2976 25.8079C19.3003 25.8079 18.3657 25.9171 17.4939 26.1356C16.622 26.3543 15.7746 26.6758 14.9516 27.1001C14.7246 27.222 14.5589 27.3643 14.4544 27.5271C14.3499 27.69 14.2976 27.8758 14.2976 28.0846V28.8079ZM20.2976 21.1924C20.8476 21.1924 21.3184 20.9966 21.7101 20.6049C22.1018 20.2132 22.2976 19.7424 22.2976 19.1924C22.2976 18.6424 22.1018 18.1715 21.7101 17.7799C21.3184 17.3882 20.8476 17.1924 20.2976 17.1924C19.7476 17.1924 19.2768 17.3882 18.8851 17.7799C18.4934 18.1715 18.2976 18.6424 18.2976 19.1924C18.2976 19.7424 18.4934 20.2132 18.8851 20.6049C19.2768 20.9966 19.7476 21.1924 20.2976 21.1924Z" fill="black"/>
</g>
</svg>
