<svg width="45" height="45" viewBox="0 0 45 45" fill="none" xmlns="http://www.w3.org/2000/svg">
<rect width="45" height="45" rx="17.25" fill="#D9D9D9"/>
<mask id="mask0_752_106" style="mask-type:alpha" maskUnits="userSpaceOnUse" x="9" y="9" width="27" height="27">
<rect x="9" y="9" width="27" height="27" fill="#D9D9D9"/>
</mask>
<g mask="url(#mask0_752_106)">
<path d="M18.2812 22.2188H26.7188V20.5312H18.2812V22.2188ZM18.5625 32.0625V29.8125H13.8462C13.2779 29.8125 12.7969 29.6156 12.4031 29.2219C12.0094 28.8281 11.8125 28.3471 11.8125 27.7788V14.9712C11.8125 14.4029 12.0094 13.9219 12.4031 13.5281C12.7969 13.1344 13.2779 12.9375 13.8462 12.9375H31.1538C31.7221 12.9375 32.2031 13.1344 32.5969 13.5281C32.9906 13.9219 33.1875 14.4029 33.1875 14.9712V27.7788C33.1875 28.3471 32.9906 28.8281 32.5969 29.2219C32.2031 29.6156 31.7221 29.8125 31.1538 29.8125H26.4375V32.0625H18.5625ZM13.8462 28.125H31.1538C31.2404 28.125 31.3197 28.0889 31.3917 28.0167C31.4639 27.9447 31.5 27.8654 31.5 27.7788V14.9712C31.5 14.8846 31.4639 14.8053 31.3917 14.7333C31.3197 14.6611 31.2404 14.625 31.1538 14.625H13.8462C13.7596 14.625 13.6803 14.6611 13.6083 14.7333C13.5361 14.8053 13.5 14.8846 13.5 14.9712V27.7788C13.5 27.8654 13.5361 27.9447 13.6083 28.0167C13.6803 28.0889 13.7596 28.125 13.8462 28.125Z" fill="black"/>
</g>
</svg>
