<svg width="45" height="45" viewBox="0 0 45 45" fill="none" xmlns="http://www.w3.org/2000/svg">
<rect width="45" height="45" rx="17.25" fill="#D9D9D9"/>
<mask id="mask0_752_88" style="mask-type:alpha" maskUnits="userSpaceOnUse" x="9" y="9" width="27" height="27">
<rect x="9" y="9" width="27" height="27" fill="#D9D9D9"/>
</mask>
<g mask="url(#mask0_752_88)">
<path d="M32.3608 21.3446V30.31C32.3608 30.8783 32.164 31.3594 31.7702 31.7531C31.3765 32.1469 30.8955 32.3438 30.3274 32.3438H14.7071C14.1389 32.3438 13.658 32.1469 13.2642 31.7531C12.8705 31.3594 12.6736 30.8783 12.6736 30.31V21.323C12.2206 20.951 11.8806 20.4682 11.6535 19.8745C11.4263 19.2811 11.4216 18.6404 11.6395 17.9525L12.7774 14.2355C12.9274 13.7624 13.1819 13.3809 13.541 13.0911C13.9002 12.8012 14.3293 12.6562 14.8283 12.6562H30.1845C30.6836 12.6562 31.1098 12.7947 31.4631 13.0717C31.8165 13.3486 32.074 13.7294 32.2354 14.2141L33.395 17.9525C33.6129 18.6404 33.6082 19.2789 33.3809 19.8681C33.1539 20.4574 32.8138 20.9496 32.3608 21.3446ZM24.9924 20.5312C25.6068 20.5312 26.0687 20.3434 26.3781 19.9676C26.6875 19.5919 26.814 19.1884 26.7578 18.7571L26.0741 14.3438H23.3608V18.7875C23.3608 19.2606 23.521 19.6695 23.8412 20.0143C24.1615 20.3589 24.5452 20.5312 24.9924 20.5312ZM19.9299 20.5312C20.4476 20.5312 20.8676 20.3589 21.1899 20.0143C21.5124 19.6695 21.6736 19.2606 21.6736 18.7875V14.3438H18.9604L18.277 18.8004C18.2162 19.2 18.3416 19.5884 18.6533 19.9657C18.9649 20.3427 19.3904 20.5312 19.9299 20.5312ZM14.9236 20.5312C15.3404 20.5312 15.6988 20.3859 15.9988 20.0953C16.2988 19.8047 16.4842 19.4394 16.5549 18.9996L17.2166 14.3438H14.8283C14.7056 14.3438 14.6083 14.3708 14.5363 14.4248C14.4641 14.4789 14.4101 14.5601 14.3741 14.6683L13.2921 18.3288C13.1436 18.812 13.2136 19.2998 13.5022 19.7924C13.7906 20.285 14.2644 20.5312 14.9236 20.5312ZM30.1111 20.5312C30.7197 20.5312 31.1856 20.2922 31.5086 19.8141C31.8317 19.3359 31.9096 18.8408 31.7424 18.3288L30.6041 14.6467C30.5681 14.5385 30.5141 14.4609 30.4421 14.4141C30.37 14.3672 30.2726 14.3438 30.1499 14.3438H27.8178L28.4796 18.9996C28.5503 19.4394 28.7356 19.8047 29.0356 20.0953C29.3356 20.3859 29.6941 20.5312 30.1111 20.5312ZM14.7071 30.6562H30.3274C30.4283 30.6562 30.5111 30.6238 30.576 30.5589C30.6411 30.4941 30.6736 30.4111 30.6736 30.31V22.1192C30.551 22.164 30.4485 22.1918 30.3662 22.2024C30.2841 22.2133 30.1991 22.2188 30.1111 22.2188C29.6049 22.2188 29.1596 22.1272 28.7752 21.944C28.3908 21.7608 28.0182 21.4672 27.6575 21.0634C27.3417 21.4153 26.9682 21.6959 26.537 21.9052C26.1057 22.1142 25.6139 22.2188 25.0616 22.2188C24.5842 22.2188 24.1342 22.1196 23.7116 21.9212C23.2889 21.723 22.8909 21.4371 22.5174 21.0634C22.1697 21.4371 21.776 21.723 21.3361 21.9212C20.8961 22.1196 20.4504 22.2188 19.9991 22.2188C19.4913 22.2188 19.0153 22.1268 18.5711 21.9428C18.127 21.7589 17.7361 21.4657 17.3986 21.0634C16.9254 21.5364 16.4893 21.8473 16.0905 21.996C15.6919 22.1445 15.3029 22.2188 14.9236 22.2188C14.8355 22.2188 14.7446 22.2133 14.6508 22.2024C14.5571 22.1918 14.4604 22.164 14.3608 22.1192V30.31C14.3608 30.4111 14.3934 30.4941 14.4584 30.5589C14.5233 30.6238 14.6062 30.6562 14.7071 30.6562Z" fill="black"/>
</g>
</svg>
